<svg width="40" height="40" viewBox="0 0 40 40" fill="none" xmlns="http://www.w3.org/2000/svg">
<circle cx="20" cy="20" r="20" transform="rotate(90 20 20)" fill="#558B25"/>
<path d="M20.4609 12.5C20.6094 12.5 20.7461 12.5273 20.8711 12.582C21.0039 12.6367 21.125 12.7187 21.2344 12.8281L30.3281 22.1211C30.5312 22.332 30.6328 22.5859 30.6328 22.8828C30.6328 23.0859 30.5859 23.2656 30.4922 23.4219C30.3984 23.5859 30.2695 23.7148 30.1055 23.8086C29.9492 23.9102 29.7695 23.9609 29.5664 23.9609C29.2773 23.9609 29.0234 23.8555 28.8047 23.6445L20.4609 15.1133L12.1172 23.6445C11.8984 23.8555 11.6445 23.9609 11.3555 23.9609C11.1523 23.9609 10.9727 23.9102 10.8164 23.8086C10.6523 23.7148 10.5234 23.5859 10.4297 23.4219C10.3359 23.2656 10.2891 23.0859 10.2891 22.8828C10.2891 22.5859 10.3945 22.332 10.6055 22.1211L19.6875 12.8281C19.7969 12.7187 19.9141 12.6367 20.0391 12.582C20.1719 12.5273 20.3125 12.5 20.4609 12.5Z" fill="white"/>
</svg>
