<?xml version="1.0" encoding="UTF-8"?>
<svg id="Capa_1" xmlns="http://www.w3.org/2000/svg" version="1.1" viewBox="0 0 15.4 14.7">
  <!-- Generator: Adobe Illustrator 29.3.1, SVG Export Plug-In . SVG Version: 2.1.0 Build 151)  -->
  <defs>
    <style>
      .st0 {
        fill: #431c19;
      }
    </style>
  </defs>
  <path class="st0" d="M3,14.6c-.2-.1-.3-.3-.3-.5,0-.2,0-.4,0-.7l1.4-4.2L.6,6.6c-.2-.2-.4-.3-.5-.5,0-.2-.1-.4,0-.6,0-.2.2-.3.4-.4.2,0,.4-.1.7-.1h4.4L6.8.8c0-.3.2-.5.3-.6.1-.1.3-.2.5-.2s.4,0,.5.2c.1.1.3.3.3.6l1.3,4.2h4.4c.3,0,.5,0,.7.1.2,0,.3.2.4.4,0,.2,0,.4,0,.6,0,.2-.3.3-.5.5l-3.6,2.6,1.4,4.2c0,.3.1.5,0,.7,0,.2-.1.4-.3.5-.2.1-.3.2-.5.1-.2,0-.4-.1-.6-.3l-3.6-2.6-3.6,2.6c-.2.2-.4.3-.6.3-.2,0-.4,0-.5-.1Z"/>
</svg>