<?xml version="1.0" encoding="UTF-8"?>
<svg id="Capa_1" xmlns="http://www.w3.org/2000/svg" version="1.1" viewBox="0 0 34 34">
  <!-- Generator: Adobe Illustrator 29.3.1, SVG Export Plug-In . SVG Version: 2.1.0 Build 151)  -->
  <defs>
    <style>
      .st0 {
        fill-rule: evenodd;
      }

      .st0, .st1 {
        fill: #fff;
      }

      .st2 {
        fill: #431c19;
      }
    </style>
  </defs>
  <circle class="st2" cx="17" cy="17" r="17"/>
  <g>
    <path class="st1" d="M8.2,25.8l1.3-4.7c-.7-1.3-1.1-2.7-1.1-4.2,0-4.8,3.9-8.7,8.7-8.7s8.7,3.9,8.7,8.7-3.9,8.7-8.7,8.7-2.9-.4-4.1-1.1l-4.7,1.3ZM13.2,22.8l.3.2c1.1.7,2.3,1,3.6,1,3.9,0,7-3.2,7-7s-3.2-7-7-7-7,3.2-7,7,.4,2.5,1,3.6l.2.3-.7,2.6,2.6-.7Z"/>
    <path class="st0" d="M20.3,18.1c-.4-.2-.8-.5-1.2-.3-.3.1-.5.6-.7.9-.1.1-.2.2-.4,0-1.2-.5-2.1-1.3-2.8-2.4-.1-.2,0-.3,0-.5.2-.2.5-.5.5-.8,0-.3,0-.7-.2-1-.2-.4-.4-.9-.7-1.1-.3-.2-.8,0-1.1.2-.5.4-.8,1.1-.8,1.7,0,.2,0,.4,0,.5.1.4.3.8.5,1.2.2.3.4.6.5.8.6.9,1.5,1.6,2.4,2.2.5.3,1,.5,1.5.7.6.2,1.1.4,1.7.3.7-.1,1.3-.5,1.6-1.2,0-.2.1-.4,0-.6,0-.4-.6-.7-1-.9Z"/>
  </g>
</svg>